<svg width="20" height="20" viewBox="0 0 20 20" fill="none" xmlns="http://www.w3.org/2000/svg">
<path d="M16.25 3.75V16.875C16.25 17.0408 16.1842 17.1997 16.0669 17.3169C15.9497 17.4342 15.7908 17.5 15.625 17.5H4.375C4.20924 17.5 4.05027 17.4342 3.93306 17.3169C3.81585 17.1997 3.75 17.0408 3.75 16.875V3.75C3.75 3.58424 3.81585 3.42527 3.93306 3.30806C4.05027 3.19085 4.20924 3.125 4.375 3.125H7.5C7.09344 3.66547 6.87404 4.32369 6.875 5V5.625H13.125V5C13.126 4.32369 12.9066 3.66547 12.5 3.125H15.625C15.7908 3.125 15.9497 3.19085 16.0669 3.30806C16.1842 3.42527 16.25 3.58424 16.25 3.75Z" fill="#1C1C1C" fill-opacity="0.1"/>
<path d="M13.125 11.875C13.125 12.0408 13.0592 12.1997 12.9419 12.317C12.8247 12.4342 12.6658 12.5 12.5 12.5H7.5C7.33424 12.5 7.17527 12.4342 7.05806 12.317C6.94085 12.1997 6.875 12.0408 6.875 11.875C6.875 11.7092 6.94085 11.5503 7.05806 11.4331C7.17527 11.3159 7.33424 11.25 7.5 11.25H12.5C12.6658 11.25 12.8247 11.3159 12.9419 11.4331C13.0592 11.5503 13.125 11.7092 13.125 11.875ZM12.5 8.75001H7.5C7.33424 8.75001 7.17527 8.81586 7.05806 8.93307C6.94085 9.05028 6.875 9.20925 6.875 9.37501C6.875 9.54077 6.94085 9.69974 7.05806 9.81695C7.17527 9.93416 7.33424 10 7.5 10H12.5C12.6658 10 12.8247 9.93416 12.9419 9.81695C13.0592 9.69974 13.125 9.54077 13.125 9.37501C13.125 9.20925 13.0592 9.05028 12.9419 8.93307C12.8247 8.81586 12.6658 8.75001 12.5 8.75001ZM16.875 3.75001V16.875C16.875 17.2065 16.7433 17.5245 16.5089 17.7589C16.2745 17.9933 15.9565 18.125 15.625 18.125H4.375C4.04348 18.125 3.72554 17.9933 3.49112 17.7589C3.2567 17.5245 3.125 17.2065 3.125 16.875V3.75001C3.125 3.41849 3.2567 3.10055 3.49112 2.86613C3.72554 2.6317 4.04348 2.50001 4.375 2.50001H7.20781C7.55899 2.10682 7.98924 1.79224 8.47041 1.57685C8.95158 1.36146 9.47282 1.25012 10 1.25012C10.5272 1.25012 11.0484 1.36146 11.5296 1.57685C12.0108 1.79224 12.441 2.10682 12.7922 2.50001H15.625C15.9565 2.50001 16.2745 2.6317 16.5089 2.86613C16.7433 3.10055 16.875 3.41849 16.875 3.75001ZM7.5 5.00001H12.5C12.5 4.33697 12.2366 3.70108 11.7678 3.23224C11.2989 2.7634 10.663 2.50001 10 2.50001C9.33696 2.50001 8.70107 2.7634 8.23223 3.23224C7.76339 3.70108 7.5 4.33697 7.5 5.00001ZM15.625 3.75001H13.5352C13.6773 4.15143 13.75 4.57416 13.75 5.00001V5.62501C13.75 5.79077 13.6842 5.94974 13.5669 6.06695C13.4497 6.18416 13.2908 6.25001 13.125 6.25001H6.875C6.70924 6.25001 6.55027 6.18416 6.43306 6.06695C6.31585 5.94974 6.25 5.79077 6.25 5.62501V5.00001C6.25001 4.57416 6.32267 4.15143 6.46484 3.75001H4.375V16.875H15.625V3.75001Z" fill="#1C1C1C"/>
</svg>
